<!-- icon.svg -->
<svg xmlns="http://www.w3.org/2000/svg" viewBox="0 0 400 400" width="400" height="400">
    <defs>
        <linearGradient id="grad1" x1="0%" y1="0%" x2="100%" y2="0%">
            <stop offset="0%" style="stop-color:rgb(143,245,66);stop-opacity:1" />
            <stop offset="100%" style="stop-color:rgb(246,255,75);stop-opacity:1" />
        </linearGradient>
    </defs>
    <path
        d="M222.796 12c-14.81 0-28.115 6.44-37.27 16.67a.972.972 0 0 1-1.46 0C174.911 18.44 161.606 12 146.796 12c-27.615 0-50 22.385-50 50s22.385 50 50 50c14.81 0 28.115-6.44 37.27-16.67a.972.972 0 0 1 1.46 0c9.155 10.23 22.46 16.67 37.27 16.67 27.615 0 50-22.385 50-50s-22.385-50-50-50Zm0 76c-8 0-14.685-3.855-18.785-8.21-1.305-1.39-2.925-3.295-4.705-4.91-.85-.77-1.695-1.46-2.505-2.08-3.345-2.385-7.495-3.8-12-3.8s-8.655 1.415-12 3.8c-.815.62-1.655 1.31-2.505 2.08-1.785 1.615-3.4 3.52-4.705 4.91-4.1 4.355-10.785 8.21-18.785 8.21-.205 0-.405-.01-.61-.015-.345-.01-.69-.02-1.03-.04-.235-.015-.47-.035-.7-.055-.14-.01-.28-.025-.415-.035C130.986 86.48 120.806 75.43 120.806 62v.11-.22.11c0-13.425 10.18-24.475 23.24-25.855.145-.015.295-.025.44-.04.225-.02.45-.035.675-.05.345-.02.69-.03 1.04-.04.2 0 .4-.015.6-.015 8 0 14.685 3.855 18.785 8.21 1.305 1.39 2.925 3.295 4.705 4.91.85.77 1.695 1.46 2.505 2.08 3.345 2.385 7.495 3.8 12 3.8s8.655-1.415 12-3.8c.815-.62 1.655-1.31 2.505-2.08 1.785-1.615 3.4-3.52 4.705-4.91 4.1-4.355 10.785-8.21 18.785-8.21.2 0 .395.01.595.015.35.01.7.02 1.045.04.22.015.44.03.66.05.155.01.31.025.465.04 12.56 1.33 22.45 11.6 23.185 24.33 0 .085.01.165.015.245.01.235.015.475.02.71.005.355.01.705 0 1.06-.005.265-.005.535-.02.8 0 .055-.01.11-.01.165-.705 12.755-10.61 23.06-23.19 24.39-.16.015-.315.03-.475.04-.215.02-.43.035-.645.05-.345.02-.7.03-1.05.04-.2 0-.395.015-.595.015l.005.01Z"
        fill="url(#grad1)" class="center-text"></path>
</svg>
